<?xml version="1.0" encoding="UTF-8" standalone="no"?>
<svg width="34px" height="34px" viewBox="0 0 34 34" version="1.1" xmlns="http://www.w3.org/2000/svg" xmlns:xlink="http://www.w3.org/1999/xlink">
    <!-- Generator: Sketch 41 (35326) - http://www.bohemiancoding.com/sketch -->
    <title>noun_188772_cc</title>
    <desc>Created with Sketch.</desc>
    <defs></defs>
    <g id="Page-1" stroke="none" stroke-width="1" fill="none" fill-rule="evenodd">
        <g id="noun_188772_cc" fill="#FF4650">
            <g id="Group">
                <path d="M25.8210526,16.1864153 L25.7105263,16.0385942 L25.6736842,15.9646836 L25.6736842,15.8168624 L25.6,15.7429519 L25.3421053,15.7429519 L25.1947368,15.5951307 L25.0473684,15.5581754 L25.0842105,15.5212202 L25.2684211,15.4842649 L25.1947368,15.2994884 L25.3421053,15.1886226 L25.5263158,15.1516673 L25.4526316,14.8929803 L25.3789474,14.7821144 L25.1578947,14.856025 L24.9736842,14.856025 L24.7894737,15.0777567 L24.6421053,15.2255779 L24.6052632,15.373399 L24.4210526,15.4842649 L24.2736842,15.8168624 L24.5315789,15.9646836 L24.5684211,16.1125047 C24.7157895,16.2233706 24.8631579,16.3342365 25.0473684,16.4451023 L25.1947368,16.5929235 L25.3052632,16.5559682 L25.4157895,16.5929235 L25.2684211,16.666834 L25.2684211,16.8516105 L25.2684211,16.9624763 L25.1947368,17.0733422 L25.2315789,17.2211633 L25.3421053,17.3689845 L25.5631579,17.3320292 L25.7105263,17.4059397 L26.0052632,17.3320292 L26.3,17.1472527 L26.3,17.0733422 L26.1894737,16.925521 L26.1157895,16.6298787 L26.0052632,16.6298787 L26.0052632,16.4451023 L25.8947368,16.4820576 L25.8210526,16.1864153 L26.0421053,16.2233706 L26.0421053,16.2233706 L26.1894737,16.0755495 L26.0421053,16.0016389 L25.9315789,15.8538177 L25.7842105,16.0016389 L25.8210526,16.1864153 Z M11.4526316,1.10865858 C11.3789474,1.14561387 11.3052632,1.14561387 11.2684211,1.18256915 L11.1210526,1.3303903 L11.2684211,1.21952444 L11.4526316,1.10865858 Z M11.0473684,1.29343501 L11.0473684,1.29343501 C11.0105263,1.29343501 10.9368421,1.3303903 10.9,1.36734559 C10.8631579,1.36734559 10.7894737,1.44125616 10.6789474,1.47821144 L10.5684211,1.55212202 C10.7526316,1.47821144 10.9,1.36734559 11.0473684,1.29343501 Z M33.9631579,16.8516105 C33.9263158,16.7037893 33.8894737,16.5190129 33.8526316,16.3711917 L33.7789474,16.2233706 C33.7789474,16.408147 33.7421053,16.6298787 33.7052632,16.7776999 L33.6684211,16.8516105 L33.6315789,16.9624763 L33.6315789,16.6298787 L33.5578947,16.4820576 L33.4473684,16.3342365 L33.4473684,16.2233706 L33.4473684,16.2603259 L33.3,16.1864153 L33.2631579,16.14946 L33.2263158,16.0385942 L33.1894737,15.9646836 L33.1157895,15.890773 L33.0421053,16.0385942 L33.0789474,16.1125047 L33.0789474,16.2603259 L33.0421053,16.2972812 L33.0421053,16.3711917 L33.0052632,16.408147 L32.9684211,16.4451023 L32.9684211,16.5559682 L32.9315789,16.6298787 L32.8210526,16.8516105 L32.8578947,16.9994316 L32.8210526,17.2211633 L32.6736842,17.5907162 L32.6368421,18.1080902 L32.5631579,18.3667772 L32.4526316,18.6624195 L32.4526316,18.7732853 C32.4157895,18.9211065 32.3421053,18.9950171 32.3052632,19.1428382 L32.2315789,19.2167488 L32.1947368,19.4384805 L32.2684211,19.6971675 L32.3052632,19.8819439 L32.2684211,20.1775862 L32.3052632,20.5840944 L32.2315789,20.6949602 L32.1578947,20.9166919 L32.1947368,20.9536472 L32.0473684,21.1384236 L32.0105263,21.3232001 L31.9368421,21.4710212 L31.7894737,21.3601554 C31.7526316,21.2123342 31.6789474,21.0645131 31.6421053,20.8797366 L31.5684211,20.8058261 L31.5315789,20.6949602 L31.4578947,20.4362732 L31.4210526,20.2884521 L31.2368421,20.1036756 C31.1631579,19.8819439 31.0894737,19.6232569 31.0157895,19.4384805 L30.9421053,19.1428382 L30.8684211,18.9580618 L30.6473684,19.2906593 L30.5,19.3645699 L30.2052632,19.2167488 L30.2789474,19.0689276 L30.2052632,18.9950171 L29.9473684,18.9211065 L29.8,18.9580618 L29.6894737,18.8102406 L29.5052632,18.6993748 L29.1736842,18.9580618 C28.9894737,19.1058829 28.7684211,19.1797935 28.5842105,19.3276146 L28.1789474,19.4754358 L28.0315789,19.5863016 L27.8105263,19.6602122 L27.6631579,19.4015252 L27.5526316,19.4015252 L27.3684211,19.5123911 L27.1842105,19.6971675 L26.8894737,19.7341228 L26.6315789,19.6232569 L26.4105263,19.6232569 L26.2263158,19.4384805 L26.0052632,19.1797935 L25.8947368,19.2906593 L25.7473684,19.2537041 L25.6736842,19.4015252 L25.5263158,19.4384805 L25.6,19.5493463 L25.6,19.5863016 C25.6736842,19.7341228 25.7473684,19.8080333 25.8210526,19.9558545 L25.9684211,19.9928098 L26.0421053,20.0667203 L26.1894737,20.1406309 L26.2263158,20.2514968 L26.2263158,20.3254074 L26.2631579,20.3993179 L26.3368421,20.4362732 L26.3736842,20.5101838 L26.4105263,20.5471391 L26.3736842,20.3993179 L26.4105263,20.2514968 L26.4842105,20.1775862 L26.5578947,20.2514968 L26.5947368,20.3993179 L26.5578947,20.5471391 L26.6315789,20.6210496 L26.6684211,20.5840944 L26.7052632,20.6580049 L26.8526316,20.5471391 C26.9631579,20.5101838 27.0736842,20.4732285 27.1842105,20.4362732 C27.3315789,20.2145415 27.4421053,19.9928098 27.5526316,19.7710781 L27.5894737,19.6602122 L27.6263158,19.6602122 L27.6263158,19.7710781 L27.5894737,19.8449886 L27.6631579,20.0297651 L27.8105263,20.1775862 L27.9578947,20.2145415 L28.1052632,20.1775862 L28.1052632,20.1775862 C28.1789474,20.2514968 28.2526316,20.2884521 28.2894737,20.3254074 L28.3631579,20.3254074 L28.3631579,20.3993179 C28.3263158,20.5101838 28.2894737,20.5471391 28.2894737,20.6580049 L28.2157895,20.8058261 L28.1421053,20.9906025 L28.0315789,21.0275578 L27.9947368,21.1014684 L27.9578947,21.2492895 L27.9947368,21.3971106 L27.9578947,21.4340659 C27.9210526,21.4340659 27.8842105,21.4710212 27.8473684,21.4710212 L27.7,21.6188424 L27.7,21.7666635 L27.7368421,21.7297082 L27.6631579,21.7666635 L27.5894737,21.8775294 L27.5894737,21.9883952 L27.4789474,22.0992611 L27.3315789,22.1362164 L27.1842105,22.2840375 L27.0736842,22.3579481 L26.9263158,22.5057692 L26.8894737,22.6535904 L26.8894737,22.7644562 L26.6684211,22.9122774 L26.3,23.1709644 L26.1157895,23.3926961 L26.0052632,23.4296514 L25.9315789,23.4296514 L25.7842105,23.5774725 L25.6368421,23.6883384 L25.4526316,23.762249 L25.3421053,23.8731148 L25.2684211,23.9470254 L25.1947368,23.9839807 L25.1578947,24.0578912 L25.0105263,24.0948465 L24.9368421,24.1687571 L24.7894737,24.2057124 L24.7894737,23.9470254 L24.7894737,23.7992042 L24.7157895,23.762249 L24.6789474,23.6144278 L24.6052632,23.5405172 L24.6789474,23.503562 L24.6421053,23.3926961 L24.6789474,23.3187855 L24.6421053,23.2079197 L24.6052632,23.0970538 L24.5315789,23.0231432 L24.4947368,22.9122774 L24.3842105,22.9122774 L24.2368421,22.7644562 L24.1263158,22.5427245 L23.9421053,22.3949034 L23.7947368,22.3949034 L23.6105263,22.2101269 L23.5736842,22.0623058 L23.5736842,21.9144847 L23.4263158,21.6557977 L23.2789474,21.5818871 L23.1315789,21.5449318 L23.0210526,21.3971106 L23.0210526,21.3232001 L22.9105263,21.1753789 L22.8368421,21.1384236 L22.6894737,20.9906025 C22.5789474,20.8797366 22.4684211,20.7688708 22.3578947,20.6580049 L22.2105263,20.6949602 L22.2473684,20.5471391 L22.2473684,20.4362732 L22.2842105,20.3254074 L22.2842105,20.3254074 L22.2105263,20.4732285 L22.2105263,20.6580049 L22.1368421,20.8058261 L22.0631579,20.8797366 C21.9894737,20.8058261 21.9157895,20.7688708 21.8421053,20.7319155 L21.6210526,20.3993179 L21.5842105,20.4362732 L21.7315789,20.6949602 L21.9157895,20.9166919 L22.1368421,21.2862448 L22.2473684,21.4340659 L22.3578947,21.5818871 L22.6157895,21.8036188 L22.5789474,21.8036188 L22.6157895,21.9514399 L22.9473684,22.0992611 L23.0210526,22.1362164 L23.1315789,22.3579481 L23.0578947,22.4318587 L23.1315789,22.6905457 L23.2421053,22.9492327 C23.3526316,22.9861879 23.3894737,23.0231432 23.5,23.0600985 L23.6473684,23.3187855 L23.7578947,23.503562 L23.9052632,23.6144278 L24.2736842,23.762249 C24.4210526,23.8731148 24.5315789,23.9100701 24.6421053,24.020936 L24.7894737,24.0578912 L24.8631579,24.1318018 L24.8631579,24.2426677 L24.7157895,24.3904888 C24.7894737,24.4274441 24.8631579,24.4274441 24.9,24.4643994 L24.9736842,24.5752653 L25.1210526,24.6491758 L25.2684211,24.6122205 L25.4894737,24.4643994 L25.7473684,24.3535335 L25.9684211,24.2057124 L26.1157895,24.1318018 L26.2263158,24.0578912 C26.3,24.020936 26.3736842,23.9839807 26.4473684,23.9470254 L26.5578947,23.8731148 L26.7052632,23.7992042 L26.8157895,23.6513831 L26.9263158,23.6144278 L26.9263158,23.6883384 L26.8894737,23.8361595 L26.8894737,24.020936 L26.8526316,24.1318018 L26.7421053,24.3904888 C26.6315789,24.6122205 26.5947368,24.8339523 26.4842105,25.055684 L26.2631579,25.4621921 C26.1157895,25.6839238 25.9315789,25.9426108 25.7473684,26.2012978 L25.4894737,26.4599848 C25.2684211,26.607806 25.0473684,26.8295377 24.8631579,26.9773588 L24.4210526,27.2730011 L24.3473684,27.4208223 L24.2736842,27.4947329 L24.0526316,27.5686434 L23.9789474,27.6795093 L23.8684211,27.7164646 L23.7947368,27.8642857 L23.6842105,27.9751516 L23.6105263,28.1229727 L23.5,28.2338386 L23.3526316,28.4925256 L23.3526316,28.6033914 L23.5,28.6403467 L23.5,28.677302 L23.3894737,28.8251232 L23.3894737,28.8990337 L23.3526316,29.0098996 L23.4263158,29.1207654 L23.5,29.2685866 L23.6105263,29.2685866 L23.6842105,29.194676 L23.6473684,29.3424972 L23.6473684,29.4903183 L23.5736842,29.7490053 L23.6105263,29.8229159 L23.5,29.970737 L23.3526316,30.1185582 L23.2052632,30.2663793 C23.0578947,30.3402899 22.8368421,30.4142005 22.6894737,30.488111 L22.3578947,30.6728875 L22.2473684,30.6728875 L22.0631579,30.8207086 L21.9526316,30.8576639 L21.9157895,30.9685297 L22.0263158,31.0424403 L22.0631579,31.1163509 L22.0631579,31.1533062 L22.1,31.1533062 L22.0631579,31.3011273 L21.9894737,31.3750379 L22.0263158,31.3750379 L21.9526316,31.4119932 L21.8421053,31.4859038 C21.6947368,31.5598143 21.5105263,31.6337249 21.3263158,31.6337249 L21.1789474,31.7076355 L21.1789474,31.7445908 L21.2526316,31.7445908 L21.2157895,31.8185013 L21.1052632,31.9293672 L21.0315789,32.0032778 L20.9578947,32.0771883 C20.8842105,32.1141436 20.8105263,32.1510989 20.7368421,32.1880542 L20.5894737,32.2619648 L20.4789474,32.3358753 L20.3315789,32.4097859 C20.1842105,32.4836965 20.0368421,32.557607 19.8526316,32.5945623 L19.6684211,32.6315176 L19.4473684,32.7054282 L19.3368421,32.7054282 L19.3,32.7423835 L19.1526316,32.7423835 L19.0421053,32.7793388 L18.8947368,32.7793388 L18.7473684,32.8162941 L18.6368421,32.8162941 L18.4157895,32.8532493 L18.2315789,32.8902046 L18.0842105,32.9271599 L17.9736842,32.9271599 L17.8631579,32.8902046 L17.7894737,32.8902046 L17.6789474,32.8532493 L17.6789474,32.8532493 L17.6421053,32.8162941 L17.6421053,32.7793388 L17.5684211,32.7054282 L17.6421053,32.7054282 L17.6421053,32.6315176 L17.5684211,32.5206518 C17.4578947,32.4467412 17.3842105,32.3728306 17.2736842,32.3358753 L17.1263158,32.2619648 L17.0157895,32.1880542 L16.9421053,32.0771883 L16.8684211,32.0032778 L16.7578947,31.8554566 L16.7578947,31.7076355 L16.7210526,31.6337249 L16.6105263,31.5598143 L16.4263158,31.3750379 L16.2789474,31.2272167 L16.2052632,31.1163509 L15.9842105,30.9685297 L15.9473684,30.8946192 L15.9105263,30.7837533 L15.9473684,30.6359322 L16.0578947,30.488111 L16.0578947,30.4142005 L16.1684211,30.2663793 L16.2421053,30.1924687 L16.3894737,30.0816029 L16.5,30.0076923 L16.5368421,29.8598712 L16.5368421,29.7490053 L16.4263158,29.6750947 C16.3526316,29.6011842 16.3157895,29.5272736 16.2789474,29.4903183 L16.2789474,29.5642289 L16.3894737,29.4903183 C16.3157895,29.3794524 16.2789474,29.3055419 16.2421053,29.194676 L16.0947368,29.0468549 L16.1315789,29.0098996 L16.0947368,28.935989 L15.9842105,28.8251232 L15.7631579,28.6033914 L15.4684211,28.3816597 L15.2842105,28.2338386 L15.1368421,28.0121069 L15.1368421,27.9381963 L15.2105263,27.8642857 L15.2842105,27.7164646 L15.3578947,27.5686434 L15.2842105,27.5316881 L15.3947368,27.3099564 L15.4315789,27.1621353 L15.3210526,27.0143141 L15.1736842,26.9773588 L15.1,26.866493 L15.0263158,26.8295377 L15.0263158,26.7556271 L14.7315789,26.8295377 L14.6210526,26.7925824 L14.5105263,26.8295377 L14.2894737,26.7925824 L13.9947368,26.607806 L13.8842105,26.4599848 L13.7,26.3121637 C13.5526316,26.2382531 13.3684211,26.2382531 13.2210526,26.2012978 L13,26.2012978 L12.7789474,26.2012978 L12.3,26.2752084 L12.1526316,26.3121637 L11.8947368,26.3121637 L11.6368421,26.1643426 L11.4894737,26.1643426 L11.3052632,26.0534767 L11.1578947,26.0165214 L10.8263158,25.9795661 C10.6789474,25.9795661 10.5315789,26.0165214 10.3473684,26.0165214 L10.2736842,25.9795661 L10.2,25.9426108 L9.94210526,25.7578344 L9.68421053,25.5361027 L9.46315789,25.3513263 L9.27894737,25.1295945 L9.20526316,25.0926393 L8.98421053,24.9448181 L8.83684211,24.7600417 L8.8,24.6491758 L8.76315789,24.4643994 L8.65263158,24.3165782 L8.57894737,24.1687571 L8.50526316,24.0948465 L8.43157895,24.020936 L8.39473684,23.9100701 L8.35789474,23.8361595 L8.28421053,23.762249 L8.17368421,23.6513831 L8.06315789,23.6144278 L7.98947368,23.503562 L7.98947368,23.4666067 L7.91578947,23.3926961 C7.87894737,23.2818302 7.87894737,23.244875 7.87894737,23.1340091 L7.91578947,23.0231432 L7.84210526,22.8014115 L7.73157895,22.6535904 L7.84210526,22.6535904 L7.98947368,22.5057692 L8.06315789,22.3949034 L8.06315789,22.2470822 L8.13684211,22.1362164 L8.21052632,21.9144847 L8.21052632,21.6557977 L8.21052632,21.5079765 L8.24736842,21.3971106 L8.21052632,21.2492895 L8.1,21.1014684 C8.13684211,21.0275578 8.13684211,20.9536472 8.17368421,20.9166919 L8.28421053,20.8797366 L8.39473684,20.7688708 L8.39473684,20.6580049 L8.50526316,20.5101838 L8.65263158,20.3993179 L8.76315789,20.3993179 L8.87368421,20.2514968 L8.91052632,20.1036756 L9.02105263,19.9558545 L9.16842105,19.9188992 L9.35263158,19.7341228 L9.5,19.6602122 L9.72105263,19.6971675 L9.94210526,19.5863016 L10.0894737,19.5493463 L10.3105263,19.4015252 L10.3105263,19.2167488 L10.4578947,19.0319723 L10.5315789,18.8841512 L10.7157895,18.73633 L10.9736842,18.6993748 L11.1578947,18.6254642 L11.3789474,18.4037325 L11.4894737,18.2559113 L11.6736842,18.2928666 L11.8210526,18.4406878 L12.0421053,18.477643 L12.3,18.6254642 L12.4105263,18.6624195 L12.6684211,18.5515536 L12.9631579,18.5515536 L13.1473684,18.477643 L13.4052632,18.4406878 C13.7,18.4406878 13.9947368,18.477643 14.2894737,18.5145983 L14.4368421,18.6254642 L14.6947368,18.5515536 L14.9894737,18.5885089 L15.1,18.6624195 L15.2473684,18.6624195 L15.5421053,18.5885089 L15.7263158,18.6254642 L15.7263158,18.7732853 L15.9473684,18.6993748 L15.9473684,18.7732853 L15.8,18.9211065 L15.8,19.0689276 L15.9105263,19.1428382 L15.8736842,19.3645699 L15.6894737,19.5123911 L15.7263158,19.6602122 L15.8736842,19.6602122 L15.9473684,19.8080333 L16.0578947,19.8449886 L16.3894737,19.9558545 L16.5,19.9188992 L16.7210526,19.9928098 L17.0894737,20.1406309 L17.2368421,20.3623626 C17.4210526,20.3993179 17.6789474,20.4732285 17.8631579,20.5101838 L18.1578947,20.6580049 L18.3052632,20.5840944 L18.4526316,20.4362732 L18.3789474,20.2514968 L18.4526316,20.1036756 L18.6368421,19.9558545 L18.8210526,19.9188992 L19.1894737,19.9558545 L19.3,20.0667203 L19.4105263,20.0667203 L19.5210526,20.1036756 L19.7789474,20.1036756 L19.8526316,20.1775862 L20.2210526,20.1406309 C20.4421053,20.1775862 20.6631579,20.2145415 20.8842105,20.2884521 L21.0684211,20.1775862 L21.1789474,20.0667203 L21.4,19.9928098 L21.5842105,19.9928098 L21.6578947,20.1406309 L21.7315789,20.0297651 L21.9157895,20.0667203 L22.1,20.0297651 L22.2473684,19.9188992 L22.3210526,19.8080333 L22.2842105,19.8080333 L22.3578947,19.6602122 L22.3947368,19.4754358 L22.4315789,19.4015252 L22.4315789,19.4015252 L22.5052632,19.1797935 L22.6157895,18.9950171 L22.6157895,18.9950171 L22.5421053,18.8102406 L22.5789474,18.6624195 L22.4315789,18.477643 L22.5052632,18.3298219 L22.3578947,18.4037325 L22.1736842,18.3667772 L21.8421053,18.6254642 L21.4736842,18.73633 L21.2526316,18.6254642 L21.0315789,18.6254642 L20.9947368,18.7732853 L20.8473684,18.8471959 L20.5894737,18.73633 L20.3315789,18.7732853 L20.1842105,18.5515536 L20,18.4037325 L20.1105263,18.1820008 L19.9631579,18.0711349 L20.2210526,17.8124479 L20.5894737,17.7754926 L20.6631579,17.5907162 L21.1421053,17.5537609 L21.4,17.3689845 L21.6578947,17.2211633 L22.0631579,17.1472527 L22.5052632,17.2581186 L22.8736842,17.2950739 L23.1315789,17.184208 L23.3157895,17.1472527 L23.5368421,16.9624763 L23.5368421,16.8146552 L23.3526316,16.6298787 L23.2052632,16.5559682 L23.0578947,16.5559682 L22.9473684,16.4820576 L22.6157895,16.3342365 L22.3578947,16.2972812 L22.1368421,16.1864153 L22.2842105,16.1125047 L22.4315789,15.8538177 L22.2842105,15.7799072 L22.5789474,15.632086 L22.5789474,15.5581754 L22.3947368,15.5951307 L22.2105263,15.632086 L22.0631579,15.7429519 L21.8421053,15.8168624 L21.6947368,15.9646836 L21.7315789,16.1125047 L21.8789474,16.14946 L22.1,16.0755495 L22.0631579,16.2233706 L21.8421053,16.2972812 L21.5473684,16.4820576 L21.4,16.4451023 L21.4368421,16.2972812 L21.1789474,16.2603259 L21.2157895,16.1864153 L21.4,16.0385942 L21.3263158,16.0016389 L20.9578947,16.0016389 L20.9210526,15.890773 L20.7368421,16.0016389 L20.6631579,16.14946 L20.5157895,16.3711917 L20.5157895,16.4451023 L20.4052632,16.5190129 L20.3315789,16.4820576 L20.2947368,16.8146552 L20.1842105,16.9624763 L20.1105263,17.1472527 L20.2210526,17.2950739 L20.2578947,17.4059397 L20.4789474,17.4798503 L20.4421053,17.5537609 L20.1473684,17.5907162 L20.0368421,17.701582 L19.8526316,17.8494032 L19.7421053,17.701582 L19.7421053,17.6276715 L19.5947368,17.6276715 L19.4473684,17.6276715 L19.1894737,17.7385373 L19.3368421,17.8863585 L19.1894737,17.960269 L19.0421053,17.960269 L18.8947368,17.8124479 L18.8947368,17.8494032 L18.9684211,17.9972243 L19.1157895,18.1450455 L19.0052632,18.218956 L19.1526316,18.3298219 L19.3,18.4037325 L19.3,18.5515536 L19.1157895,18.477643 L19.1894737,18.6254642 L19.0421053,18.6624195 L19.1526316,18.8841512 L19.0052632,18.8841512 L18.8210526,18.7732853 L18.7105263,18.5885089 L18.6368421,18.4406878 C18.5631579,18.3298219 18.4894737,18.2928666 18.4157895,18.1820008 L18.3789474,18.1080902 L18.3421053,18.0711349 L18.3421053,17.9972243 L18.1578947,17.8494032 L18.1210526,17.7385373 L18.1578947,17.5907162 L18.1947368,17.4798503 L18.1578947,17.442895 L18.0842105,17.4059397 L18.0105263,17.2950739 C17.9,17.2211633 17.7894737,17.184208 17.6789474,17.1472527 L17.5315789,17.0363869 L17.3105263,16.9994316 L17.0894737,16.8516105 L17.1631579,16.8146552 L17.0526316,16.7037893 L17.0526316,16.5929235 L16.9052632,16.5559682 L16.8315789,16.666834 L16.7578947,16.5559682 L16.7578947,16.4451023 L16.7578947,16.4451023 L16.8315789,16.408147 L16.6473684,16.3711917 L16.4631579,16.4820576 L16.4631579,16.6298787 L16.4263158,16.7037893 L16.5,16.8516105 L16.7210526,16.9994316 L16.8684211,17.2211633 L17.1263158,17.442895 L17.3105263,17.442895 L17.3842105,17.5168056 L17.3105263,17.5907162 C17.4578947,17.6646268 17.5684211,17.7385373 17.7157895,17.7385373 L17.9368421,17.8863585 L17.9736842,17.960269 L17.9368421,18.0711349 L17.7894737,17.8863585 L17.5684211,17.8494032 L17.4578947,17.9972243 L17.6421053,18.1080902 L17.6052632,18.2559113 L17.4947368,18.2559113 L17.3842105,18.477643 L17.2736842,18.5145983 L17.2736842,18.4406878 L17.3473684,18.2928666 L17.4210526,18.218956 C17.3473684,18.1080902 17.2736842,18.0341796 17.2736842,17.9233138 L17.1631579,17.8863585 L17.0894737,17.7385373 L16.9052632,17.7385373 L16.6473684,17.6276715 L16.4631579,17.5907162 L16.2789474,17.442895 L16.0578947,17.2581186 L15.9105263,17.1102975 L15.8368421,16.8516105 L15.6894737,16.8146552 L15.5052632,16.7037893 L15.4684211,16.7407446 L15.3210526,16.8516105 L15.2105263,16.8516105 L14.9526316,16.9994316 L14.4736842,16.8516105 L14.1052632,16.8885657 L14.0315789,17.0363869 L14.0315789,17.184208 L13.7368421,17.3320292 L13.4052632,17.3320292 L13.3684211,17.442895 L13.2210526,17.5537609 L13.0736842,17.7385373 L13.1473684,17.8863585 L13,17.960269 L12.9263158,18.1080902 L12.7421053,18.1080902 L12.4842105,18.2928666 C12.3,18.2559113 12.1157895,18.218956 11.9315789,18.1450455 L11.7842105,18.218956 L11.6736842,18.2928666 L11.5263158,18.218956 L11.4526316,18.1080902 L11.4157895,17.960269 L11.1578947,17.8863585 L11.0473684,17.9233138 L10.9,17.8494032 L10.7894737,17.8494032 L10.8631579,17.6646268 L10.8631579,17.5168056 L10.7894737,17.442895 L10.7526316,17.3320292 L10.8263158,17.184208 L10.9368421,17.1102975 L10.9736842,16.9994316 L11.0842105,16.8516105 L11.1210526,16.7407446 L11.0473684,16.6298787 L11.0473684,16.5190129 L11.1210526,16.3711917 L11.0473684,16.2233706 L11.4157895,16.1125047 L11.6736842,16.2603259 L11.9684211,16.3342365 L12.1894737,16.4451023 L12.3736842,16.4820576 L12.7789474,16.5929235 L12.9263158,16.4451023 L13.0736842,15.9646836 L12.8894737,15.632086 L12.7421053,15.4842649 L12.4105263,15.3364437 L12.4473684,15.1516673 L12.7421053,15.1516673 L13.1105263,15.2994884 L13.1105263,15.0038462 L13.2947368,15.1516673 L13.8473684,15.0408014 L13.9578947,14.856025 C14.1052632,14.856025 14.2157895,14.8190697 14.3631579,14.8190697 L14.5105263,14.7451592 L14.7684211,14.3756063 L15.1,14.3016957 L15.2842105,14.338651 L15.3210526,14.2647404 L15.5789474,14.2647404 L15.6157895,14.338651 L15.7631579,14.2277851 L15.7263158,14.1169193 L15.7263158,13.9690981 L15.6526316,13.821277 L15.6894737,13.56259 L15.7263158,13.4886794 L15.8,13.4147689 L15.9842105,13.4147689 L16.0578947,13.3408583 L16.2052632,13.2669477 L16.1684211,13.4147689 L16.0947368,13.4886794 L16.1315789,13.56259 L16.2421053,13.5995453 L16.1684211,13.7104111 L16.0947368,13.6734559 L15.9473684,13.7843217 L15.9842105,13.9321429 L15.9842105,14.0430087 L16.1684211,14.1169193 L16.1684211,14.2277851 L16.3894737,14.1908299 L16.5368421,14.1169193 L16.7578947,14.2277851 L16.8684211,14.338651 L17.0157895,14.2647404 C17.2,14.1908299 17.4210526,14.1169193 17.6052632,14.079964 L17.7894737,14.1169193 L17.8263158,14.1908299 L18.0105263,14.1908299 L18.0473684,14.079964 L18.3421053,13.9690981 L18.3421053,13.6734559 L18.3421053,13.4886794 L18.4526316,13.3408583 L18.6368421,13.2299924 L18.7842105,13.4147689 L18.9315789,13.4147689 C18.9315789,13.2669477 18.9684211,13.1930371 18.9684211,13.045216 L18.8947368,13.0821713 L18.7473684,12.9713054 L18.7105263,12.8234843 L18.9315789,12.7126184 L19.1526316,12.6387078 L19.3368421,12.6756631 L19.5210526,12.6387078 L19.7052632,12.4908867 L19.4842105,12.3800208 L19.2631579,12.4908867 L18.9315789,12.6387078 L18.6368421,12.7126184 L18.5263158,12.527842 L18.3421053,12.4539314 L18.3789474,12.1952444 L18.2684211,11.9735127 L18.3421053,11.8256915 L18.4894737,11.6778704 L18.8947368,11.3822281 L19.0052632,11.3083175 L18.9684211,11.1974517 L18.7842105,11.1235411 L18.4894737,11.234407 L18.3421053,11.3822281 L18.3789474,11.5300493 L18.1210526,11.7148257 L17.7894737,11.9365574 L17.6421053,12.3061103 L17.7894737,12.4539314 L17.9736842,12.6017526 L17.7894737,12.9343501 L17.6052632,13.0082607 L17.4210526,13.4517241 L17.2736842,13.6734559 L17.0157895,13.6365006 L16.8684211,13.821277 L16.6473684,13.821277 L16.5736842,13.56259 L16.4631579,13.303903 L16.3157895,12.9343501 L16.1684211,12.786529 L15.7263158,13.045216 L15.4684211,13.0821713 L15.2105263,12.9343501 L15.2105263,12.6017526 L15.2473684,12.010468 L15.4315789,11.8626468 L15.9473684,11.7148257 L16.3526316,11.493094 C16.6105263,11.234407 16.8684211,10.97572 17.1631579,10.6800777 C17.4210526,10.5322565 17.6421053,10.3474801 17.9,10.199659 L18.2315789,10.0518378 L18.4894737,10.0518378 L18.7105263,9.8301061 L18.9684211,9.8301061 L19.2263158,9.75619553 L19.7052632,9.90401667 L19.5578947,9.97792725 L19.7421053,10.1257484 L19.8894737,10.0148825 L20.1842105,10.1257484 L20.6263158,10.0887931 L21.2894737,10.2366142 L21.4736842,10.3474801 L21.5473684,10.4953013 L21.4,10.6431224 L21.1789474,10.7909435 C20.9578947,10.7909435 20.6631579,10.7539883 20.4052632,10.717033 L20.2947368,10.7909435 L20.5894737,10.9387647 L20.7,11.3083175 L20.9210526,11.3452728 L21.0684211,11.3822281 L21.0684211,11.234407 L20.9210526,11.1235411 L21.0315789,11.0126753 L21.4736842,11.0865858 L21.6210526,10.97572 L21.4736842,10.8648541 L21.7684211,10.5322565 L21.9157895,10.4953013 L22.0631579,10.5322565 L22.1,10.3474801 L21.9526316,10.2366142 L21.9526316,10.0887931 L21.7315789,9.97792725 L22.1736842,9.94097196 L22.3210526,10.0518378 L22.1736842,10.1627037 L22.2473684,10.3105248 L22.3947368,10.3474801 L22.5789474,10.199659 L22.5421053,10.0518378 L22.7631579,9.86706139 L23.1315789,9.49750853 L23.2421053,9.46055324 L23.1315789,9.60837438 L23.2789474,9.5714191 L23.3157895,9.46055324 L23.5368421,9.34968738 L23.6842105,9.20186624 L23.9052632,9.27577681 L23.9421053,9.09100038 L23.7578947,9.01708981 L23.7578947,8.90622395 L24.1631579,8.7584028 L24.3473684,8.72144752 L24.9,8.72144752 L24.8631579,8.57362637 L24.6789474,8.53667109 L24.6789474,8.42580523 L24.5315789,8.4997158 L24.4947368,8.35189466 L24.3105263,8.20407351 L24.2368421,8.13016294 L24.2736842,7.83452065 L24.1631579,7.61278894 L24.2,7.50192308 L24.4578947,7.35410193 L24.6052632,7.46496779 L24.6789474,7.68669951 L24.7894737,7.68669951 L24.9368421,7.79756537 L25.1578947,8.09320765 L25.3421053,8.13016294 L25.4157895,8.27798408 L25.4894737,8.72144752 L25.6368421,8.64753695 L25.6,8.53667109 L25.6736842,8.38884994 L25.6,8.2410288 L25.6,8.09320765 L25.4526316,8.13016294 L25.3789474,7.9823418 L25.2684211,8.05625237 L25.1578947,7.90843122 L25.0473684,7.64974422 L24.7894737,7.57583365 L24.8263158,7.31714665 L24.6789474,7.31714665 L24.7157895,7.28019136 L24.8631579,7.35410193 L25.0105263,7.53887836 L25.1578947,7.50192308 L25.0105263,7.39105722 L25.0842105,7.20628079 L25.2315789,7.05845964 L25.4526316,7.02150436 L25.2315789,6.94759379 L25.0105263,6.79977264 L25.0842105,6.6519515 L25.2315789,6.50413035 L25.3421053,6.31935392 L25.1947368,6.28239864 L25.0842105,6.09762221 L25.1578947,5.98675635 L25.1210526,5.76502463 L25.1947368,5.54329291 L25.1210526,5.46938234 L25.1947368,5.28460591 L25.2684211,5.24765063 L25.1947368,5.02591891 L25.1578947,4.80418719 L25.0473684,4.73027662 L24.9368421,4.58245548 L24.8631579,4.36072376 L24.9736842,4.2498579 L25.0473684,4.39767905 L25.0842105,4.2498579 L25.2315789,4.28681319 L25.1578947,4.17594733 L25.1578947,3.95421561 L25.2684211,3.80639447 L25.3421053,3.76943918 L25.4894737,3.84334975 L25.6,3.95421561 L25.7473684,4.21290261 L25.8210526,4.32376847 L25.8578947,4.21290261 L25.8947368,4.10203676 L25.8210526,3.9911709 L25.9684211,4.02812618 L25.8947368,3.95421561 L25.8210526,3.80639447 L25.7842105,3.58466275 L25.8947368,3.62161804 L25.7105263,3.32597575 L25.5263158,3.28902046 L25.4526316,3.14119932 L25.3789474,3.03033346 L25.4157895,2.9194676 L25.5263158,2.9194676 L25.6736842,3.03033346 L25.7842105,2.99337817 L25.7842105,2.88251232 L25.5263158,2.73469117 L25.5263158,2.62382531 L25.3789474,2.47600417 L25.2315789,2.32818302 L25.1210526,2.25427245 L25.0105263,2.14340659 L24.8631579,2.14340659 L24.6789474,2.03254074 C24.4947368,1.8477643 24.4947368,1.8477643 23.9789474,1.47821144 L23.9789474,1.47821144 L23.8315789,1.3303903 C20.2210526,-0.221731717 16.0947368,-0.406508147 12.3368421,0.813016294 L12.3368421,0.813016294 L12.5578947,0.739105722 C12.4105263,0.84997158 12.2263158,0.886926866 12.0421053,0.960837438 L11.7473684,1.10865858 C11.6368421,1.14561387 11.5631579,1.21952444 11.4157895,1.25647973 L11.5263158,1.18256915 L11.5263158,1.18256915 L11.6736842,1.03474801 L11.7105263,0.997792725 C11.6736842,1.03474801 11.6,1.03474801 11.5631579,1.0717033 L11.6,1.10865858 L11.6,1.14561387 L11.4526316,1.29343501 L11.3052632,1.36734559 L11.2315789,1.36734559 L11.0473684,1.47821144 L10.8263158,1.5890773 L10.8263158,1.66298787 L10.6789474,1.73689845 L10.4210526,1.81080902 L10.4578947,1.81080902 L10.7157895,1.69994316 L10.6789474,1.77385373 C10.5684211,1.8477643 10.4947368,1.88471959 10.3842105,1.92167488 C10.2368421,1.95863016 10.1263158,2.03254074 9.97894737,2.06949602 C9.83157895,2.18036188 9.64736842,2.25427245 9.5,2.4020936 L9.42631579,2.43904888 L9.57368421,2.29122774 L9.42631579,2.36513831 L9.38947368,2.36513831 C9.53684211,2.25427245 9.64736842,2.18036188 9.79473684,2.06949602 L9.83157895,1.99558545 L9.97894737,1.8477643 C10.0894737,1.77385373 10.1631579,1.69994316 10.3105263,1.62603259 C10.2,1.66298787 10.1263158,1.73689845 10.0157895,1.77385373 L9.97894737,1.77385373 L9.94210526,1.8477643 L9.75789474,1.95863016 L9.68421053,1.99558545 L9.83157895,1.88471959 L9.83157895,1.92167488 L9.72105263,2.03254074 L9.68421053,2.10645131 C9.57368421,2.18036188 9.5,2.25427245 9.38947368,2.29122774 L9.31578947,2.32818302 L9.09473684,2.47600417 L8.98421053,2.62382531 L8.83684211,2.77164646 L8.98421053,2.69773588 L8.94736842,2.77164646 L8.76315789,2.95642289 L8.57894737,2.99337817 L8.68947368,2.99337817 L8.61578947,3.06728875 L8.76315789,3.03033346 C8.91052632,2.9194676 8.98421053,2.88251232 9.13157895,2.77164646 L9.35263158,2.69773588 L9.46315789,2.77164646 L9.35263158,2.9194676 L9.20526316,3.03033346 L8.91052632,3.21510989 L8.83684211,3.1781546 L8.68947368,3.36293103 L8.50526316,3.47379689 L8.61578947,3.54770746 L8.43157895,3.69552861 L8.28421053,3.69552861 L8.1,3.84334975 L8.21052632,3.88030504 L8.35789474,3.88030504 L8.57894737,3.76943918 C8.54210526,3.88030504 8.46842105,3.95421561 8.43157895,4.06508147 L8.28421053,4.21290261 L8.21052632,4.32376847 L8.1,4.32376847 L7.95263158,4.47158962 L7.84210526,4.5085449 L7.69473684,4.36072376 L7.73157895,4.21290261 L7.84210526,4.06508147 L7.73157895,4.10203676 L7.58421053,4.10203676 L7.51052632,4.10203676 L7.47368421,4.06508147 L7.54736842,3.91726033 L7.51052632,3.88030504 L7.36315789,3.95421561 L7.4,3.84334975 L7.32631579,3.80639447 L7.17894737,3.80639447 L7.03157895,3.84334975 L6.84736842,3.95421561 L6.73684211,4.13899204 C6.58947368,4.2498579 6.47894737,4.32376847 6.36842105,4.43463433 L6.29473684,4.58245548 C6.14736842,4.76723191 6,4.98896362 5.81578947,5.13678477 C5.74210526,5.28460591 5.66842105,5.35851648 5.59473684,5.50633763 C5.55789474,5.65415877 5.48421053,5.72806934 5.44736842,5.87589049 L5.3,5.98675635 L5.15263158,6.13457749 L4.93157895,6.39326449 L4.74736842,6.72586207 L4.78421053,6.76281736 L4.93157895,6.6519515 L5.22631579,6.35630921 L5.33684211,6.20848806 L5.37368421,6.35630921 L5.48421053,6.39326449 L5.63157895,6.35630921 L5.77894737,6.24544335 L5.92631579,6.06066692 L6.07368421,5.8389352 L6.25789474,5.8389352 L6.44210526,5.69111406 L6.77368421,5.46938234 L6.81052632,5.50633763 L6.73684211,5.65415877 L6.73684211,5.80197992 L6.81052632,5.87589049 C6.73684211,6.02371163 6.66315789,6.09762221 6.62631579,6.24544335 L6.47894737,6.28239864 L6.47894737,6.46717507 L6.33157895,6.61499621 L6.11052632,6.83672793 L6.07368421,6.98454907 L5.96315789,7.13237022 L6.11052632,7.20628079 L6.33157895,7.13237022 L6.44210526,7.13237022 C6.25789474,7.4280125 6.07368421,7.72365479 5.92631579,8.05625237 L5.74210526,8.13016294 L5.70526316,8.38884994 L5.63157895,8.57362637 L5.66842105,8.79535809 L5.63157895,8.94317923 L5.48421053,9.12795567 L5.52105263,9.23882152 L5.48421053,9.38664267 L5.33684211,9.60837438 L5.22631579,9.60837438 L5.22631579,9.60837438 L5.15263158,9.53446381 L5.00526316,9.38664267 L4.82105263,9.38664267 L4.71052632,9.23882152 L4.63684211,8.94317923 L4.6,8.7584028 L4.56315789,8.61058166 L4.41578947,8.64753695 L4.30526316,8.53667109 L4.08421053,8.57362637 L3.93684211,8.57362637 L3.97368421,8.68449223 L4.19473684,8.64753695 L4.37894737,8.79535809 L4.45263158,8.94317923 L4.37894737,9.12795567 L4.23157895,9.12795567 C4.12105263,9.27577681 4.04736842,9.38664267 3.97368421,9.5714191 L3.93684211,9.8301061 L4.04736842,10.0148825 L4.26842105,9.90401667 L4.15789474,10.1257484 L4.12105263,10.2735695 L3.97368421,10.2366142 L3.78947368,10.0887931 L3.67894737,10.0148825 L3.53157895,10.0148825 L3.53157895,9.86706139 L3.67894737,9.71924024 L3.82631579,9.79315081 L3.78947368,9.5714191 L3.75263158,9.42359795 L3.71578947,9.53446381 L3.60526316,9.46055324 L3.49473684,9.38664267 L3.42105263,9.27577681 L3.31052632,9.3127321 L3.27368421,9.3127321 L3.2,9.42359795 L3.16315789,9.60837438 L3.16315789,9.68228496 L3.23684211,9.5714191 L3.2,9.68228496 L3.16315789,9.71924024 L3.12631579,9.64532967 L3.12631579,9.5714191 L3.08947368,9.49750853 C3.08947368,9.46055324 3.08947368,9.38664267 3.05263158,9.34968738 L3.05263158,9.3127321 L3.08947368,9.46055324 L3.05263158,9.5714191 L3.01578947,9.42359795 L3.01578947,9.3127321 L3.01578947,9.3127321 L2.97894737,9.3127321 L2.97894737,9.38664267 L2.86842105,9.49750853 L2.75789474,9.53446381 L2.79473684,9.46055324 L2.79473684,9.42359795 L2.83157895,9.3127321 L2.75789474,9.46055324 L2.72105263,9.53446381 L2.68421053,9.60837438 L2.68421053,9.64532967 L2.57368421,9.71924024 L2.57368421,9.68228496 L2.64736842,9.5714191 L2.72105263,9.42359795 L2.83157895,9.27577681 L2.75789474,9.34968738 L2.64736842,9.49750853 L2.68421053,9.34968738 L2.61052632,9.49750853 L2.46315789,9.68228496 L2.46315789,9.75619553 C2.38947368,9.86706139 2.35263158,9.94097196 2.31578947,10.0518378 L2.24210526,10.0887931 L2.24210526,9.97792725 L2.16842105,9.97792725 L2.16842105,9.97792725 C1.50526316,11.4561387 1.06315789,13.0821713 0.915789474,14.7451592 L0.915789474,14.7821144 L0.915789474,14.7821144 C0.842105263,15.7429519 0.805263158,16.6298787 0.842105263,17.4798503 C0.878947368,17.5537609 0.878947368,17.6276715 0.915789474,17.701582 L0.878947368,17.5907162 L0.878947368,17.7385373 L0.915789474,17.8863585 L0.952631579,18.1080902 L0.952631579,18.2928666 L0.989473684,18.3667772 C1.02631579,18.5515536 1.06315789,18.73633 1.1,18.9211065 L1.1,19.0689276 L1.17368421,19.2167488 C1.21052632,19.3276146 1.21052632,19.4384805 1.24736842,19.5493463 L1.35789474,19.7710781 L1.35789474,19.7341228 L1.43157895,19.8449886 C1.50526316,19.9928098 1.57894737,20.1775862 1.61578947,20.3254074 L1.72631579,20.6949602 L1.76315789,20.8427814 L1.8,20.8797366 C1.87368421,21.1014684 1.91052632,21.3232001 1.94736842,21.5449318 L2.02105263,21.6557977 L2.05789474,21.8036188 L1.94736842,21.8405741 L1.98421053,21.9514399 L2.16842105,22.2470822 L2.20526316,22.4688139 L2.27894737,22.4318587 C2.42631579,22.6166351 2.53684211,22.8753221 2.68421053,23.0600985 L2.79473684,23.244875 L2.79473684,23.3557408 L2.94210526,23.4666067 L3.23684211,23.8731148 L3.45789474,24.0578912 C3.60526316,24.3165782 3.82631579,24.53831 3.93684211,24.8339523 L4.08421053,24.9817734 L4.23157895,25.1295945 L4.30526316,25.2404604 C4.37894737,25.3882815 4.41578947,25.5361027 4.45263158,25.6839238 L4.48947368,25.9426108 L4.45263158,26.0165214 L4.30526316,26.090432 L4.26842105,26.2382531 L4.26842105,26.3121637 L4.23157895,26.2382531 L4.23157895,26.349119 C4.34210526,26.5708507 4.41578947,26.8295377 4.52631579,27.0143141 L4.52631579,27.0512694 L4.56315789,27.1621353 C6.77368421,29.8968264 9.83157895,31.8924119 13.2210526,32.7423835 C16.4631579,33.5923551 19.9631579,33.4445339 23.0947368,32.2619648 C28.9157895,30.1185582 33.1894737,24.7600417 33.8894737,18.5515536 C33.9631579,17.9972243 33.9631579,17.442895 33.9631579,16.8516105 L33.9631579,16.8516105 Z M16.3526316,18.4406878 L16.6473684,18.477643 C16.7947368,18.477643 16.9421053,18.4406878 17.1263158,18.4406878 L17.0157895,18.6254642 L17.0526316,18.6993748 L16.9789474,18.8471959 L16.7947368,18.73633 L16.6473684,18.6993748 L16.2789474,18.5515536 L16.3526316,18.4406878 Z M22.4684211,8.64753695 L22.6157895,8.38884994 L22.4684211,8.42580523 L22.5789474,8.13016294 L22.4684211,8.01929708 C22.6157895,7.87147594 22.7263158,7.68669951 22.8736842,7.53887836 L23.1315789,7.35410193 L23.2421053,7.20628079 L23.3894737,7.05845964 L23.5368421,7.09541493 L23.5368421,7.20628079 C23.3894737,7.39105722 23.2421053,7.57583365 23.0947368,7.76061008 L22.9473684,8.13016294 L22.9105263,8.38884994 L22.8736842,8.68449223 L23.0210526,8.83231338 L23.3157895,8.86926866 L23.2421053,8.94317923 L22.8,9.09100038 L22.6894737,8.98013452 L22.4684211,9.01708981 L22.3578947,8.90622395 L22.4684211,8.79535809 L22.4684211,8.64753695 Z M5.22631579,9.75619553 C5.11578947,9.79315081 5.04210526,9.86706139 4.89473684,9.90401667 L5.00526316,9.90401667 L5.00526316,10.0518378 L4.93157895,10.0887931 L4.96842105,10.2366142 L5.04210526,10.2366142 L5.07894737,10.4213907 L4.93157895,10.5322565 L5.00526316,10.6061671 L4.93157895,10.717033 L4.85789474,10.8648541 L4.71052632,10.97572 L4.67368421,10.9387647 L4.63684211,10.7909435 L4.78421053,10.6431224 L4.78421053,10.5692118 L4.6,10.6061671 L4.52631579,10.5692118 L4.67368421,10.5692118 L4.63684211,10.4213907 L4.56315789,10.2735695 L4.45263158,10.0148825 L4.48947368,9.94097196 L4.6,9.94097196 L4.63684211,9.8301061 L4.78421053,9.8301061 L5.11578947,9.68228496 L5.26315789,9.64532967 L5.37368421,9.68228496 L5.41052632,9.75619553 L5.22631579,9.75619553 Z M11.4157895,10.5692118 L11.2684211,10.5692118 C11.1210526,10.4213907 10.9,10.3474801 10.7526316,10.199659 L10.9368421,10.1627037 L10.7157895,9.90401667 L10.9736842,9.97792725 L11.0105263,9.90401667 L10.7894737,9.71924024 L10.9368421,9.60837438 L11.1578947,9.68228496 L11.3052632,9.94097196 L11.6,9.90401667 L11.7473684,10.0518378 L12.0421053,10.0148825 L12.2631579,10.1257484 L12.1157895,10.2735695 L12.2263158,10.4953013 L11.9315789,10.6061671 C11.7473684,10.6061671 11.6,10.6061671 11.4157895,10.5692118 Z M11.8578947,14.079964 L11.6,13.9321429 L11.8210526,13.7473664 L11.7842105,13.4517241 C11.9315789,13.3778136 12.1157895,13.303903 12.3,13.2669477 L12.4473684,13.303903 L12.5947368,13.4886794 L12.4473684,13.6365006 L12.4105263,13.821277 L12.2631579,14.0430087 L11.8578947,14.079964 Z M14.0684211,14.4864721 L13.9210526,14.5603827 L13.9947368,14.7082039 L13.7736842,14.7821144 L13.4789474,14.7082039 L13.0736842,14.7082039 L12.9631579,14.6342933 L12.8157895,14.7451592 L12.6315789,14.6342933 L12.4842105,14.7082039 L12.3736842,14.6342933 L12.7789474,14.4495169 L12.9631579,14.4495169 L12.6315789,14.3016957 L12.5947368,14.1538746 L12.8157895,14.1169193 L12.7421053,13.9690981 L12.8526316,13.821277 L13.1473684,13.9321429 L13.2210526,13.7843217 L13.1105263,13.5995453 L12.8894737,13.4886794 L12.8526316,13.4147689 L12.9631579,13.303903 L12.9263158,13.1930371 L12.7421053,13.303903 L12.8157895,13.0821713 L12.7421053,12.9343501 L12.8894737,12.7126184 L13.0736842,12.5647973 L13.2210526,12.6387078 L13.4421053,12.6756631 L13.1473684,12.8973948 L13.3684211,12.8973948 L13.5894737,12.9343501 L13.4789474,13.1191266 L13.2578947,13.303903 L13.4421053,13.3778136 L13.5894737,13.7473664 L13.7368421,13.821277 L13.8105263,14.1538746 L13.8473684,14.2647404 L14.1052632,14.3756063 L14.0684211,14.4864721 Z M10.9,1.81080902 L10.9,1.81080902 L11.1210526,1.62603259 L11.2684211,1.47821144 L11.4157895,1.36734559 L11.4894737,1.36734559 L11.3421053,1.47821144 C11.4526316,1.40430087 11.6,1.3303903 11.7473684,1.21952444 L11.8947368,1.14561387 L11.9315789,1.21952444 L11.8947368,1.25647973 C11.7105263,1.36734559 11.5263158,1.44125616 11.3421053,1.51516673 L11.1947368,1.62603259 L11.4894737,1.51516673 L11.4894737,1.55212202 L11.3789474,1.62603259 C11.3052632,1.66298787 11.2315789,1.66298787 11.1578947,1.69994316 L11.1210526,1.77385373 L11.0105263,1.8477643 L10.9,1.81080902 L10.9,1.81080902 L10.9,1.81080902 L10.9,1.81080902 Z M11.5263158,2.88251232 L11.4894737,2.95642289 L11.3789474,3.03033346 L11.5263158,3.03033346 L11.5631579,3.10424403 L11.5631579,3.21510989 L11.5263158,3.32597575 L11.4894737,3.36293103 L11.5263158,3.51075218 L11.5263158,3.76943918 L11.5263158,4.06508147 L11.4894737,4.28681319 L11.4157895,4.32376847 L11.2684211,4.21290261 L11.1578947,4.13899204 L11.1210526,4.10203676 L11.1578947,4.2498579 L11.0105263,4.13899204 L10.9,4.06508147 L10.7157895,4.02812618 L10.6789474,3.88030504 L10.6421053,3.84334975 L10.6421053,3.65857332 L10.6052632,3.76943918 L10.5684211,3.7324839 L10.4210526,3.84334975 L10.3473684,3.80639447 L10.3105263,3.69552861 L10.2,3.69552861 L10.1263158,3.62161804 L10.0157895,3.65857332 L10.0157895,3.80639447 L9.94210526,3.84334975 L9.83157895,3.69552861 L9.97894737,3.47379689 L10.0157895,3.28902046 C10.0894737,3.1781546 10.1263158,3.14119932 10.1631579,3.03033346 L10.2736842,2.99337817 L10.2368421,3.14119932 L10.4210526,3.03033346 L10.4210526,3.06728875 L10.2368421,3.28902046 L10.4210526,3.14119932 L10.5315789,2.99337817 L10.6052632,3.03033346 L10.6052632,3.14119932 L10.6789474,3.14119932 L10.8263158,2.99337817 L10.9736842,2.9194676 L10.8631579,3.10424403 L10.8263158,3.1781546 L10.9,3.25206518 L10.9736842,3.10424403 L11.0473684,2.88251232 L11.1947368,2.73469117 L11.3421053,2.6607806 L11.4894737,2.62382531 L11.6,2.58687003 L11.6,2.69773588 L11.5263158,2.69773588 L11.4526316,2.80860174 L11.5263158,2.88251232 Z M10.9,2.51295945 L10.9736842,2.51295945 L11.0105263,2.54991474 L11.1210526,2.4020936 L11.2684211,2.32818302 L11.4157895,2.25427245 L11.4894737,2.29122774 L11.5263158,2.32818302 L11.4894737,2.4020936 L11.5631579,2.36513831 L11.4526316,2.51295945 L11.3052632,2.62382531 C11.2315789,2.69773588 11.1578947,2.77164646 11.1210526,2.84555703 L10.8631579,2.95642289 L10.7526316,3.06728875 L10.7157895,2.99337817 L10.6052632,2.88251232 L10.6789474,2.73469117 L10.8263158,2.58687003 L10.9,2.51295945 Z M10.8263158,2.4020936 L10.8631579,2.29122774 L10.9736842,2.21731717 L11.0842105,2.18036188 L11.1947368,2.14340659 L11.1210526,2.25427245 L11.0842105,2.29122774 L10.9368421,2.4020936 L10.8263158,2.4020936 L10.8263158,2.4020936 Z M10.5684211,2.54991474 L10.4210526,2.6607806 L10.3105263,2.80860174 L10.2,2.9194676 L10.1263158,2.9194676 L10.0526316,2.99337817 L9.97894737,3.06728875 C9.94210526,3.14119932 9.86842105,3.21510989 9.83157895,3.28902046 L9.83157895,3.39988632 L9.75789474,3.54770746 L9.68421053,3.69552861 L9.57368421,3.84334975 L9.46315789,3.91726033 L9.38947368,3.88030504 L9.38947368,3.69552861 L9.46315789,3.58466275 L9.53684211,3.36293103 L9.61052632,3.21510989 L9.72105263,3.06728875 L9.90526316,2.84555703 L10.0526316,2.77164646 L10.2,2.73469117 L10.3473684,2.62382531 L10.4947368,2.47600417 L10.6421053,2.36513831 L10.7157895,2.36513831 L10.5684211,2.54991474 Z M11.3052632,2.06949602 L11.1578947,2.10645131 L11.0473684,2.14340659 L11.1947368,2.03254074 L11.3421053,1.92167488 L11.4894737,1.77385373 L11.4894737,1.8477643 L11.6368421,1.77385373 L11.7473684,1.77385373 C11.5631579,1.88471959 11.4157895,1.99558545 11.3052632,2.06949602 Z M10.3842105,2.29122774 L10.4947368,2.21731717 L10.6421053,2.18036188 L10.7526316,2.06949602 L10.9,1.99558545 L10.7894737,2.10645131 L10.7526316,2.21731717 L10.6421053,2.32818302 L10.6789474,2.32818302 L10.5315789,2.36513831 L10.4210526,2.4020936 L10.2736842,2.4020936 L10.3842105,2.29122774 Z M9.57368421,2.58687003 L9.68421053,2.51295945 C9.83157895,2.4020936 9.97894737,2.32818302 10.1631579,2.21731717 L10.2368421,2.21731717 L10.0894737,2.36513831 L10.2736842,2.25427245 L10.2736842,2.32818302 L10.1263158,2.43904888 L10.0157895,2.58687003 L9.94210526,2.62382531 L9.90526316,2.58687003 L9.68421053,2.69773588 L9.53684211,2.6607806 L9.57368421,2.58687003 Z M9.53684211,2.73469117 L9.75789474,2.62382531 L9.86842105,2.58687003 L9.94210526,2.62382531 L9.94210526,2.69773588 L9.79473684,2.84555703 L9.68421053,3.03033346 L9.53684211,2.95642289 L9.57368421,2.84555703 L9.46315789,2.80860174 L9.53684211,2.73469117 Z M7.14210526,4.73027662 L7.25263158,4.61941076 L7.17894737,4.58245548 L7.14210526,4.43463433 L7.28947368,4.32376847 L7.32631579,4.17594733 L7.4,4.21290261 L7.54736842,4.13899204 L7.69473684,4.06508147 L7.65789474,4.13899204 L7.54736842,4.21290261 L7.54736842,4.2498579 L7.47368421,4.43463433 C7.4,4.54550019 7.32631579,4.61941076 7.28947368,4.73027662 L7.17894737,4.80418719 L7.17894737,4.87809776 L7.06842105,4.98896362 L7.03157895,4.91505305 L7.14210526,4.73027662 Z M7.58421053,5.87589049 L7.47368421,5.94980106 L7.36315789,6.13457749 L7.25263158,6.31935392 L7.21578947,6.39326449 L7.03157895,6.57804092 L6.88421053,6.6519515 L6.92105263,6.50413035 L7.06842105,6.13457749 C6.95789474,6.28239864 6.92105263,6.43021978 6.81052632,6.61499621 L6.73684211,6.6519515 L6.77368421,6.31935392 L6.88421053,6.02371163 L6.99473684,5.8389352 L7.06842105,5.8389352 C7.14210526,5.69111406 7.21578947,5.54329291 7.25263158,5.39547177 L7.17894737,5.43242706 L7.17894737,5.17374005 L7.28947368,5.02591891 L7.43684211,4.98896362 L7.4,5.17374005 L7.4,5.35851648 L7.47368421,5.28460591 L7.58421053,5.24765063 L7.76842105,5.24765063 L7.87894737,5.17374005 L7.95263158,5.09982948 L8.06315789,4.91505305 L8.17368421,4.69332133 L8.21052632,4.73027662 L8.35789474,4.58245548 L8.39473684,4.47158962 L8.50526316,4.36072376 L8.54210526,4.28681319 L8.54210526,4.13899204 L8.68947368,3.76943918 C8.8,3.62161804 8.83684211,3.51075218 8.91052632,3.39988632 L9.02105263,3.28902046 L9.09473684,3.36293103 L9.16842105,3.21510989 L9.38947368,3.10424403 L9.53684211,3.10424403 L9.57368421,3.1781546 L9.53684211,3.36293103 L9.31578947,3.36293103 L9.16842105,3.51075218 L9.31578947,3.51075218 L9.35263158,3.65857332 L9.09473684,3.88030504 L8.94736842,3.91726033 L8.98421053,4.06508147 L9.05789474,4.10203676 L8.91052632,4.32376847 L8.8,4.47158962 L8.68947368,4.58245548 L8.76315789,4.73027662 L8.61578947,4.87809776 L8.54210526,5.13678477 L8.46842105,5.28460591 L8.28421053,5.46938234 L8.13684211,5.35851648 L8.02631579,5.65415877 L8.02631579,5.80197992 L7.87894737,6.06066692 L7.91578947,6.20848806 L7.76842105,6.28239864 L7.76842105,6.28239864 L7.47368421,6.28239864 L7.54736842,6.09762221 L7.69473684,5.80197992 L7.58421053,5.87589049 Z M7.58421053,9.23882152 L7.58421053,8.94317923 L7.43684211,8.7584028 L7.47368421,8.57362637 L7.62105263,8.35189466 L7.76842105,7.94538651 L7.87894737,7.79756537 L8.02631579,7.64974422 L8.13684211,7.35410193 L8.28421053,7.24323607 L8.32105263,7.09541493 L8.61578947,6.98454907 L8.76315789,7.05845964 L8.87368421,7.02150436 L9.02105263,6.9106385 L8.87368421,6.87368321 L8.8,6.83672793 L8.72631579,6.76281736 L8.72631579,6.61499621 L8.87368421,6.50413035 L9.02105263,6.43021978 L9.09473684,6.50413035 L9.16842105,6.68890678 C9.20526316,6.54108564 9.20526316,6.46717507 9.24210526,6.31935392 L9.16842105,6.24544335 L9.16842105,6.13457749 L9.42631579,6.06066692 L9.5,5.94980106 C9.61052632,5.80197992 9.68421053,5.69111406 9.79473684,5.54329291 L9.83157895,5.39547177 L9.94210526,5.3215612 L10.0157895,5.06287419 L9.97894737,4.91505305 C9.94210526,4.76723191 9.90526316,4.69332133 9.86842105,4.54550019 L9.94210526,4.39767905 L10.0894737,4.21290261 L10.2,4.36072376 L10.2368421,4.5085449 L10.2736842,4.17594733 L10.3842105,3.9911709 L10.4947368,3.95421561 L10.6421053,4.17594733 L10.7894737,4.36072376 L10.7894737,4.36072376 L10.8631579,4.13899204 L10.9736842,4.17594733 L11.1947368,4.32376847 L11.2684211,4.39767905 L11.3789474,4.32376847 L11.5263158,4.43463433 L11.6736842,4.58245548 L11.7842105,4.73027662 L11.7473684,4.84114248 L11.9684211,4.91505305 L12.0052632,5.09982948 L12.0421053,5.21069534 L12.0789474,5.35851648 L12.0789474,5.17374005 L12.1894737,5.09982948 L12.4842105,5.21069534 L12.6315789,5.39547177 L12.7789474,5.39547177 C13.0368421,5.54329291 13.2578947,5.76502463 13.5157895,5.91284577 C13.6263158,6.06066692 13.7368421,6.17153278 13.8842105,6.31935392 L13.7,6.31935392 C13.4789474,6.17153278 13.2210526,6.09762221 12.9631579,5.94980106 L12.9631579,6.02371163 L13.2210526,6.17153278 L13.3684211,6.35630921 L13.5526316,6.39326449 L13.5526316,6.50413035 L13.3684211,6.57804092 L13.6263158,6.61499621 C13.7736842,6.6519515 13.9578947,6.68890678 14.1052632,6.72586207 L14.3631579,6.87368321 L14.3631579,6.98454907 L13.8842105,6.98454907 L13.8842105,6.98454907 L13.7736842,7.02150436 L13.4421053,6.9106385 L13.6263158,7.02150436 L13.4052632,7.13237022 L13.2578947,7.24323607 L13.1105263,7.46496779 L13.1473684,7.64974422 L13,7.57583365 L12.7789474,7.57583365 L12.8894737,7.76061008 L12.7789474,7.94538651 L12.6315789,7.90843122 L12.6684211,8.13016294 L12.4105263,8.01929708 L12.4842105,8.16711823 L12.3736842,8.2410288 L12.2263158,8.20407351 L12.0789474,8.13016294 L12.1157895,8.31493937 L12.0421053,8.42580523 L11.8947368,8.2410288 L11.7842105,8.27798408 L11.8947368,8.42580523 L11.9684211,8.61058166 L11.8947368,8.7584028 L11.6736842,8.68449223 C11.6368421,8.57362637 11.6,8.4997158 11.5631579,8.35189466 L11.4894737,8.4997158 L11.3052632,8.53667109 C11.4526316,8.64753695 11.6,8.68449223 11.7842105,8.79535809 L11.3052632,8.83231338 L10.8631579,8.83231338 L10.4578947,8.68449223 L10.3105263,8.61058166 L10.0526316,8.61058166 L9.72105263,8.72144752 L9.38947368,8.68449223 L9.31578947,8.64753695 C9.16842105,8.61058166 9.09473684,8.53667109 8.94736842,8.4997158 L8.8,8.57362637 L8.65263158,8.72144752 L8.50526316,8.83231338 L8.21052632,8.83231338 L8.1,9.01708981 C7.95263158,9.12795567 7.84210526,9.16491095 7.69473684,9.27577681 L7.58421053,9.23882152 Z M25.8210526,29.3055419 L25.7473684,29.3794524 L25.7105263,29.3055419 L25.6368421,29.3794524 L25.6368421,29.4903183 L25.6368421,29.5642289 L25.5631579,29.6381394 L25.4894737,29.7859606 C25.2315789,30.1185582 24.9736842,30.4142005 24.6789474,30.7098427 L24.5315789,30.8576639 C24.3842105,30.9315745 24.2736842,31.005485 24.1263158,31.0424403 L23.8684211,31.0424403 L23.8315789,31.005485 L23.8684211,30.8946192 L23.8315789,30.8207086 L23.8684211,30.7098427 L23.9421053,30.5989769 L24.0526316,30.5250663 L24.0894737,30.488111 L24.2368421,30.3402899 L24.3105263,30.229424 L24.2368421,30.1555135 L24.2368421,30.0816029 L24.2736842,29.9337817 L24.3842105,29.8229159 L24.4578947,29.71205 L24.6052632,29.6750947 C24.6789474,29.6381394 24.7526316,29.6011842 24.8263158,29.5272736 L24.9368421,29.4903183 C25.0842105,29.3794524 25.1947368,29.3055419 25.3421053,29.194676 L25.4526316,29.0838102 L25.4526316,29.194676 L25.5631579,29.194676 L25.7105263,29.0468549 L25.7473684,28.935989 L25.8578947,28.8251232 L25.9315789,28.8620784 L25.9684211,28.8990337 L26.0052632,29.0098996 L25.8947368,29.1577207 L25.9315789,29.2316313 L25.8210526,29.3055419 Z M32.5263158,21.2123342 L32.4526316,21.3601554 L32.3052632,21.5449318 L32.2684211,21.4340659 L32.2315789,21.1384236 L32.3052632,20.6580049 L32.4157895,20.6949602 L32.4894737,20.8058261 L32.5631579,20.9536472 L32.5631579,21.2123342 L32.5263158,21.2123342 Z" id="Shape"></path>
            </g>
        </g>
    </g>
</svg>