<?xml version="1.0" encoding="UTF-8" standalone="no"?>
<svg width="101px" height="40px" viewBox="0 0 101 40" version="1.1" xmlns="http://www.w3.org/2000/svg" xmlns:xlink="http://www.w3.org/1999/xlink">
    <!-- Generator: Sketch 41 (35326) - http://www.bohemiancoding.com/sketch -->
    <title>noun_164118_cc</title>
    <desc>Created with Sketch.</desc>
    <defs></defs>
    <g id="Page-1" stroke="none" stroke-width="1" fill="none" fill-rule="evenodd">
        <g id="noun_164118_cc" transform="translate(1.000000, 2.000000)">
            <g id="Group">
                <path d="M43.592,19.706 L43.592,25.891 C43.592,27.404 42.73,28.63 41.666,28.63 L32.831,28.63 C35.169,25.636 36.563,21.869 36.563,17.776 C36.563,17.505 36.556,17.236 36.544,16.967 L41.666,16.967 C42.73,16.967 43.592,18.194 43.592,19.706 Z" id="Shape" fill="#FF4650"></path>
                <path d="M36.41,15.456 C35.499,8.516 30.557,2.847 24.011,0.875 L23.879,0.606 C31.736,4.561 39.068,3.321 43.413,1.866 C42.616,2.984 42.145,4.35 42.145,5.828 C42.145,9.067 44.401,11.778 47.427,12.48 C46.576,14.417 45.476,16.044 44.286,17.406 C43.938,16.259 43.136,15.455 42.202,15.455 L36.41,15.455 L36.41,15.456 Z" id="Shape" fill="#FF4650"></path>
                <path d="M56.464,16.967 L61.586,16.967 C61.574,17.235 61.567,17.504 61.567,17.776 C61.567,21.869 62.961,25.636 65.299,28.63 L56.464,28.63 C55.4,28.63 54.538,27.404 54.538,25.891 L54.538,19.706 C54.538,18.194 55.4,16.967 56.464,16.967 Z" id="Shape" fill="#FF4650"></path>
                <path d="M55.93,15.456 C54.996,15.456 54.193,16.259 53.846,17.407 C52.656,16.045 51.556,14.418 50.705,12.481 C53.731,11.779 55.987,9.068 55.987,5.829 C55.987,4.351 55.516,2.985 54.719,1.867 C59.064,3.322 66.396,4.561 74.253,0.607 L74.121,0.876 C67.575,2.847 62.633,8.517 61.722,15.457 L55.93,15.457 L55.93,15.456 Z" id="Shape" fill="#FF4650"></path>
                <path d="M79.372,0.124 C89.119,0.124 97.021,8.026 97.021,17.773 C97.021,27.52 89.119,35.422 79.372,35.422 C69.625,35.422 61.723,27.52 61.723,17.773 C61.723,8.026 69.624,0.124 79.372,0.124 Z" id="Shape" stroke="#FF4650" stroke-width="4"></path>
                <path d="M36.277,18.069 C36.277,27.816 28.375,35.718 18.628,35.718 C8.881,35.718 0.98,27.816 0.98,18.069 C0.98,8.322 8.881,0.42 18.628,0.42 C28.375,0.42 36.277,8.322 36.277,18.069 Z" id="Shape" stroke="#FF4650" stroke-width="4"></path>
                <path d="M54.451,5.782 C54.451,8.749 52.046,11.154 49.079,11.154 C46.112,11.154 43.707,8.749 43.707,5.782 C43.707,2.815 46.112,0.41 49.079,0.41 C52.046,0.41 54.451,2.815 54.451,5.782 Z" id="Shape" fill="#FF4650"></path>
            </g>
        </g>
    </g>
</svg>