<?xml version="1.0" encoding="UTF-8" standalone="no"?>
<svg width="96px" height="35px" viewBox="0 0 96 35" version="1.1" xmlns="http://www.w3.org/2000/svg" xmlns:xlink="http://www.w3.org/1999/xlink">
    <!-- Generator: Sketch 41 (35326) - http://www.bohemiancoding.com/sketch -->
    <title>noun_550670_cc</title>
    <desc>Created with Sketch.</desc>
    <defs></defs>
    <g id="Page-1" stroke="none" stroke-width="1" fill="none" fill-rule="evenodd">
        <g id="noun_550670_cc" fill="#FF4650">
            <path d="M90.3,15 L69.1,15 C68.7,15 68.3,14.8 68.1,14.6 C67.8,14.3 67.7,13.9 67.7,13.5 C67.8,12.4 67.8,11.3 67.8,10.2 L67.8,9.5 C67.8,9.1 67.9,8.7 68.2,8.5 C68.5,8.2 68.8,8.1 69.2,8.1 L93.6,8.1 C94.1,8.1 94.6,8.4 94.9,8.9 C95.2,9.4 95.1,10 94.7,10.4 L91.4,14.6 C91.1,14.8 90.7,15 90.3,15 Z M69.8,13 L90,13 L92.4,10 L69.8,10 L69.8,10.2 L69.8,13 Z" id="Shape"></path>
            <path d="M83.7,23.1 L67.9,23.1 C67.4,23.1 67,22.9 66.7,22.5 C66.4,22.1 66.3,21.7 66.4,21.2 C66.7,20 67,18.7 67.2,17.4 C67.3,16.7 67.9,16.1 68.7,16.1 L86.8,16.1 C87.4,16.1 87.9,16.4 88.2,17 C88.5,17.5 88.4,18.1 88,18.6 L84.8,22.6 C84.6,22.9 84.1,23.1 83.7,23.1 Z M68.5,21.1 L83.4,21.1 L85.8,18.1 L69.2,18.1 C69,19.1 68.8,20.1 68.5,21.1 Z" id="Shape"></path>
            <path d="M77.4,31 L64.6,31 C64.1,31 63.7,30.7 63.4,30.3 C63.1,29.9 63.1,29.4 63.4,28.9 C64.1,27.7 64.7,26.3 65.2,24.9 C65.4,24.4 65.9,24 66.5,24 L80.7,24 C81.2,24 81.7,24.3 82,24.8 C82.2,25.3 82.2,25.9 81.8,26.3 L78.4,30.5 C78.2,30.8 77.8,31 77.4,31 Z M65.6,29 L77.1,29 L79.5,26 L67,26 C66.6,27 66.1,28 65.6,29 Z" id="Shape"></path>
            <path d="M26.2,15 L5,15 C4.6,15 4.2,14.8 3.9,14.5 L0.6,10.3 C0.3,9.9 0.2,9.3 0.4,8.8 C0.6,8.3 1.2,8 1.7,8 L26.1,8 C26.5,8 26.8,8.2 27.1,8.4 C27.4,8.7 27.5,9.1 27.5,9.4 L27.5,10.1 C27.5,11.2 27.5,12.3 27.6,13.4 C27.6,13.8 27.5,14.2 27.2,14.4 C26.9,14.8 26.6,15 26.2,15 Z M5.3,13 L25.5,13 C25.4,12 25.4,11.1 25.4,10.2 L25.4,10 L2.9,10 L5.3,13 Z" id="Shape"></path>
            <path d="M27.4,23.1 L11.6,23.1 C11.1,23.1 10.7,22.9 10.4,22.5 L7.2,18.5 C6.8,18 6.8,17.4 7,16.9 C7.2,16.4 7.8,16 8.4,16 L26.5,16 C27.2,16 27.9,16.5 28,17.3 C28.2,18.6 28.5,19.9 28.8,21.1 C28.9,21.6 28.8,22 28.5,22.4 C28.3,22.9 27.9,23.1 27.4,23.1 Z M11.9,21.1 L26.8,21.1 C26.6,20.1 26.3,19.1 26.2,18.1 L9.5,18.1 L11.9,21.1 Z" id="Shape"></path>
            <path d="M30.7,31 L17.9,31 C17.5,31 17.1,30.8 16.8,30.5 L13.4,26.3 C13.1,25.9 13,25.3 13.2,24.8 C13.4,24.3 13.9,24 14.5,24 L28.7,24 C29.3,24 29.8,24.4 30,24.9 C30.5,26.3 31.2,27.7 31.8,28.9 C32,29.3 32,29.9 31.8,30.3 C31.6,30.7 31.2,31 30.7,31 Z M18.2,29 L29.7,29 C29.2,28.1 28.8,27.1 28.4,26 L15.8,26 L18.2,29 Z" id="Shape"></path>
            <path d="M47.6,5.5 C41.1,5.5 35.9,10.7 35.9,17.2 C35.9,23.7 41.1,28.9 47.6,28.9 C54.1,28.9 59.3,23.7 59.3,17.2 C59.3,10.7 54.1,5.5 47.6,5.5 Z M55.6,14.9 L52.1,18.3 C52,18.4 52,18.5 52,18.7 L52.8,23.5 C52.9,23.8 52.5,24.1 52.2,23.9 L47.9,21.6 C47.8,21.5 47.6,21.5 47.5,21.6 L43.1,24 C42.8,24.2 42.4,23.9 42.5,23.6 L43.3,18.8 C43.3,18.7 43.3,18.5 43.2,18.4 L39.7,15 C39.4,14.8 39.6,14.3 39.9,14.3 L44.7,13.6 C44.8,13.6 45,13.5 45,13.4 L47.2,9 C47.4,8.7 47.8,8.7 48,9 L50.2,13.4 C50.3,13.5 50.4,13.6 50.5,13.6 L55.3,14.3 C55.7,14.2 55.8,14.7 55.6,14.9 Z" id="Shape"></path>
            <path d="M47.5,34.3 C38,34.3 30.3,26.6 30.3,17.1 C30.3,7.7 38,0 47.5,0 C57,0 64.7,7.7 64.7,17.2 C64.6,26.6 56.9,34.3 47.5,34.3 Z M47.5,2 C39.1,2 32.3,8.8 32.3,17.2 C32.3,25.6 39.1,32.4 47.5,32.4 C55.9,32.4 62.7,25.6 62.7,17.2 C62.7,8.8 55.8,2 47.5,2 Z" id="Shape"></path>
        </g>
    </g>
</svg>