<?xml version="1.0" encoding="UTF-8" standalone="no"?>
<svg width="50px" height="24px" viewBox="0 0 50 24" version="1.1" xmlns="http://www.w3.org/2000/svg" xmlns:xlink="http://www.w3.org/1999/xlink">
    <!-- Generator: Sketch 41 (35326) - http://www.bohemiancoding.com/sketch -->
    <title>svg+xml</title>
    <desc>Created with Sketch.</desc>
    <defs></defs>
    <g id="Page-1" stroke="none" stroke-width="1" fill="none" fill-rule="evenodd">
        <g id="svg+xml" transform="translate(-4.000000, -10.000000)" stroke-width="2" stroke="#FFFFFF" fill="#FFFFFF">
            <g id="Shape">
                <g id="Page-1">
                    <g id="Group-5" transform="translate(28.825800, 19.131428) rotate(-10.000000) translate(-28.825800, -19.131428) translate(2.825800, 5.131428)">
                        <g id="Group-6" transform="translate(-0.000000, 0.000000)">
                            <g id="Group" transform="translate(-0.000000, 0.000000)">
                                <path d="M49.154222,17.0879438 L44.645937,14.5291876 L32.948766,15.3211835 L17.41346,6.00000007 L13.940862,6.00000007 L22.957432,15.9304112 L12.600562,16.6005616 L6.20367096,13.9199599 L1.99999996,13.9199599 L7.42212596,19.7076228 L12.722407,20.8042326 C16.134082,21.474383 19.60668,21.8399197 23.079278,21.8399197 L39.345656,21.8399197 C42.696409,21.8399197 45.986238,21.1088464 49.032377,19.7076228 L49.032377,19.7076228 C50.189909,19.2202407 50.250832,17.6971715 49.154222,17.0879438 L49.154222,17.0879438 Z" id="Shape" transform="translate(25.969996, 13.919960) rotate(-15.000000) translate(-25.969996, -13.919960) "></path>
                            </g>
                        </g>
                    </g>
                </g>
            </g>
        </g>
    </g>
</svg>